<?xml version="1.0" encoding="UTF-8"?>
<svg width="100" height="100" viewBox="0 0 100 100" xmlns="http://www.w3.org/2000/svg">
  <!-- Mango Shape -->
  <path d="M50 10 C70 10, 85 25, 85 45 C85 65, 70 80, 50 80 C30 80, 15 65, 15 45 C15 25, 30 10, 50 10" fill="#ffa500"/>
  <!-- Circuit Lines -->
  <path d="M50 10 V30 H70" fill="none" stroke="#00ffff" stroke-width="2"/>
  <path d="M50 90 V70 H30" fill="none" stroke="#00ffff" stroke-width="2"/>
  <!-- Neon Glow -->
  <path d="M50 10 C70 10, 85 25, 85 45 C85 65, 70 80, 50 80 C30 80, 15 65, 15 45 C15 25, 30 10, 50 10" fill="none" stroke="#ffcc00" stroke-width="4" filter="url(#glow)"/>
  <!-- Glow Filter -->
  <defs>
    <filter id="glow">
      <feGaussianBlur stdDeviation="3" result="blur"/>
      <feMerge>
        <feMergeNode in="blur"/>
        <feMergeNode in="SourceGraphic"/>
      </feMerge>
    </filter>
  </defs>
</svg> 