<?xml version="1.0" encoding="UTF-8"?>
<svg width="100" height="100" viewBox="0 0 100 100" xmlns="http://www.w3.org/2000/svg">
  <!-- Definitions for gradients and filters -->
  <defs>
    <!-- Bomb body gradient -->
    <radialGradient id="bombGradient" cx="50%" cy="50%" r="50%" fx="50%" fy="50%">
      <stop offset="0%" style="stop-color:#333333"/>
      <stop offset="100%" style="stop-color:#000000"/>
    </radialGradient>
    <!-- Cap gradient -->
    <linearGradient id="capGradient" x1="0%" y1="0%" x2="100%" y2="100%">
      <stop offset="0%" style="stop-color:#444444"/>
      <stop offset="100%" style="stop-color:#000000"/>
    </linearGradient>
    <!-- Shadow filter -->
    <filter id="shadow">
      <feDropShadow dx="2" dy="2" stdDeviation="3" flood-color="#000000" flood-opacity="0.5"/>
    </filter>
    <!-- Glow filter -->
    <filter id="glow">
      <feGaussianBlur stdDeviation="3" result="blur"/>
      <feMerge>
        <feMergeNode in="blur"/>
        <feMergeNode in="SourceGraphic"/>
      </feMerge>
    </filter>
  </defs>

  <!-- Bomb Body with shadow -->
  <circle cx="50" cy="50" r="35" fill="url(#bombGradient)" filter="url(#shadow)"/>
  
  <!-- Bomb Cap with gradient -->
  <path d="M50 15 C60 15, 65 20, 65 25 L65 30 C65 35, 60 40, 50 40 C40 40, 35 35, 35 30 L35 25 C35 20, 40 15, 50 15" fill="url(#capGradient)"/>
  
  <!-- Circuit Lines with glow -->
  <path d="M50 10 V30 H70" fill="none" stroke="#00ffff" stroke-width="2" filter="url(#glow)">
    <animate attributeName="stroke-opacity" values="0.5;1;0.5" dur="2s" repeatCount="indefinite" />
  </path>
  <path d="M50 90 V70 H30" fill="none" stroke="#00ffff" stroke-width="2" filter="url(#glow)">
    <animate attributeName="stroke-opacity" values="0.5;1;0.5" dur="2s" repeatCount="indefinite" />
  </path>
  <path d="M30 50 H70" fill="none" stroke="#00ffff" stroke-width="2" filter="url(#glow)">
    <animate attributeName="stroke-opacity" values="0.5;1;0.5" dur="2s" repeatCount="indefinite" />
  </path>
  
  <!-- Fuse with gradient -->
  <path d="M65 25 L85 15" fill="none" stroke="#ff0000" stroke-width="3" stroke-linecap="round"/>
  <circle cx="85" cy="15" r="3" fill="#ff0000" filter="url(#glow)">
    <animate attributeName="r" values="3;4;3" dur="2s" repeatCount="indefinite" />
  </circle>
  
  <!-- Highlight on bomb body -->
  <path d="M30 30 C40 30, 45 35, 45 40" fill="none" stroke="#ffffff" stroke-width="1" opacity="0.3"/>
  
  <!-- Neon Glow with animation -->
  <circle cx="50" cy="50" r="35" fill="none" stroke="#ffcc00" stroke-width="4" filter="url(#glow)">
    <animate attributeName="r" values="35;37;35" dur="2s" repeatCount="indefinite" />
  </circle>
  <path d="M50 15 C60 15, 65 20, 65 25 L65 30 C65 35, 60 40, 50 40 C40 40, 35 35, 35 30 L35 25 C35 20, 40 15, 50 15" fill="none" stroke="#ffcc00" stroke-width="4" filter="url(#glow)">
    <animate attributeName="stroke-opacity" values="0.7;1;0.7" dur="2s" repeatCount="indefinite" />
  </path>
</svg>
