<svg width="100" height="100" viewBox="0 0 100 100" xmlns="http://www.w3.org/2000/svg">
  <!-- Banana Shape -->
  <path d="M30 20 Q50 10 70 20 Q90 30 80 50 Q70 70 50 80 Q30 90 20 70 Q10 50 30 20" fill="#ffd700"/>
  <!-- Banana Peel -->
  <path d="M30 20 Q50 10 70 20 Q90 30 80 50 Q70 70 50 80 Q30 90 20 70 Q10 50 30 20" fill="none" stroke="#d4a017" stroke-width="2"/>
  <!-- Banana Flesh -->
  <path d="M35 25 Q50 15 65 25 Q80 35 75 50 Q70 65 50 75 Q30 85 25 65 Q20 45 35 25" fill="#fff4b3"/>
  <!-- Stem -->
  <path d="M30 20 Q25 15 20 20" fill="none" stroke="#8b4513" stroke-width="3"/>
</svg> 