<svg width="100" height="100" viewBox="0 0 100 100" xmlns="http://www.w3.org/2000/svg">
  <!-- Watermelon Slice -->
  <path d="M20 20 Q50 20 80 20 Q90 30 90 50 Q90 70 80 80 Q50 80 20 80 Q10 70 10 50 Q10 30 20 20" fill="#ff3366"/>
  <!-- Green Rind -->
  <path d="M20 20 Q50 20 80 20 Q90 30 90 50 Q90 70 80 80 Q50 80 20 80 Q10 70 10 50 Q10 30 20 20" fill="none" stroke="#228B22" stroke-width="8"/>
  <!-- Rind Pattern -->
  <path d="M20 20 Q50 20 80 20 Q90 30 90 50 Q90 70 80 80 Q50 80 20 80 Q10 70 10 50 Q10 30 20 20" fill="none" stroke="#1a5f1a" stroke-width="2" stroke-dasharray="4,4"/>
  <!-- Seeds -->
  <circle cx="40" cy="40" r="3" fill="#000000"/>
  <circle cx="60" cy="40" r="3" fill="#000000"/>
  <circle cx="40" cy="60" r="3" fill="#000000"/>
  <circle cx="60" cy="60" r="3" fill="#000000"/>
  <circle cx="30" cy="50" r="3" fill="#000000"/>
  <circle cx="70" cy="50" r="3" fill="#000000"/>
  <!-- White Rind Layer -->
  <path d="M20 20 Q50 20 80 20 Q90 30 90 50 Q90 70 80 80 Q50 80 20 80 Q10 70 10 50 Q10 30 20 20" fill="none" stroke="#ffffff" stroke-width="2"/>
</svg> 